<?xml version="1.0" standalone="no"?>
<!DOCTYPE svg PUBLIC "-//W3C//DTD SVG 20010904//EN"
 "http://www.w3.org/TR/2001/REC-SVG-20010904/DTD/svg10.dtd">
<svg version="1.0" xmlns="http://www.w3.org/2000/svg"
 width="370.000000pt" height="329.000000pt" viewBox="0 0 370.000000 329.000000"
 preserveAspectRatio="xMidYMid meet">
<metadata>
Created by potrace 1.16, written by Peter Selinger 2001-2019
</metadata>
<g transform="translate(0.000000,329.000000) scale(0.100000,-0.100000)"
fill="#000000" stroke="none">
<path d="M1690 2973 c-560 -86 -993 -503 -1091 -1053 -20 -108 -17 -345 5
-449 83 -401 339 -736 691 -906 369 -179 773 -177 1137 6 357 179 613 526 683
926 19 111 19 314 -1 426 -93 535 -541 973 -1068 1046 -73 10 -300 13 -356 4z
m120 -368 l0 -285 -37 0 c-100 1 -383 41 -412 59 -19 12 38 142 109 249 71
109 160 193 242 232 106 50 98 72 98 -255z m210 247 c105 -52 210 -177 297
-352 45 -89 51 -118 31 -125 -33 -12 -254 -45 -345 -51 l-103 -7 0 288 0 288
33 -7 c17 -3 57 -19 87 -34z m-538 -59 c-78 -91 -172 -253 -210 -363 l-11 -30
-58 21 c-99 37 -203 87 -203 99 0 31 200 184 315 242 63 32 193 85 213 88 2 0
-18 -26 -46 -57z m819 16 c105 -40 233 -119 330 -203 46 -39 84 -76 86 -82 4
-12 -118 -72 -208 -103 l-57 -19 -17 46 c-48 128 -127 260 -209 349 -57 63
-58 62 75 12z m-1151 -459 c36 -13 69 -26 73 -30 5 -4 -1 -43 -12 -86 -24 -96
-48 -255 -57 -386 l-7 -98 -240 0 -240 0 7 70 c20 200 105 427 217 577 l39 52
78 -38 c42 -21 106 -48 142 -61z m1693 18 c65 -99 96 -159 130 -253 29 -82 64
-238 70 -312 l4 -53 -237 0 c-270 0 -250 -7 -250 89 0 81 -26 266 -52 374 -12
51 -23 96 -23 100 0 5 46 26 103 47 57 22 122 50 145 64 23 13 45 24 49 25 4
1 31 -36 61 -81z m-1405 -97 c56 -11 162 -26 236 -32 l135 -12 3 -121 c2 -67
2 -174 0 -238 l-3 -118 -285 0 -284 0 0 68 c1 150 64 493 89 478 4 -3 53 -14
109 -25z m962 15 c0 -2 9 -39 20 -82 23 -93 45 -245 55 -366 l6 -88 -290 0
-291 0 0 238 0 238 138 12 c75 7 178 21 227 31 89 19 135 24 135 17z m-739
-626 l149 0 0 -240 0 -240 -67 0 c-76 0 -243 -21 -348 -44 -38 -8 -73 -12 -76
-8 -24 26 -79 344 -79 454 l0 77 123 3 c67 2 128 2 135 1 8 -2 81 -3 163 -3z
m1384 -2 c8 -8 -22 -189 -46 -277 -36 -127 -121 -299 -192 -385 l-23 -29 -85
40 c-46 22 -113 51 -149 63 -36 13 -66 24 -67 25 -1 0 7 34 17 75 30 115 51
254 59 375 l6 110 120 5 c162 7 352 6 360 -2z m-1886 -141 c10 -117 36 -276
67 -402 5 -17 -3 -24 -48 -39 -29 -10 -97 -39 -151 -64 -111 -51 -93 -57 -164
48 -55 81 -100 174 -132 275 -29 90 -61 245 -61 298 l0 27 238 0 239 0 12
-143z m1321 136 c-1 -106 -44 -401 -72 -496 -10 -32 -15 -37 -32 -33 -58 17
-264 47 -361 54 l-110 7 -3 238 -2 237 290 0 c159 0 290 -3 290 -7z m-670
-842 l0 -289 -37 10 c-97 26 -171 81 -256 188 -53 66 -167 275 -167 306 0 20
252 61 438 73 l22 1 0 -289z m315 268 c138 -15 235 -40 235 -59 0 -27 -88
-199 -135 -265 -86 -121 -225 -225 -299 -225 l-26 0 0 278 c0 153 3 282 7 285
7 7 69 3 218 -14z m-842 -121 c55 -134 131 -261 207 -342 l45 -49 -33 8 c-128
27 -365 169 -476 283 l-38 40 42 22 c45 23 209 89 223 90 4 0 18 -24 30 -52z
m1243 28 c38 -13 97 -37 131 -55 74 -37 74 -37 -22 -120 -113 -99 -310 -209
-420 -237 -28 -7 -27 -4 31 67 74 90 120 167 170 282 20 48 38 87 39 87 1 0
33 -11 71 -24z"/>
</g>
</svg>
